<svg xmlns="http://www.w3.org/2000/svg" width="78.97" height="78.985" viewBox="0 0 78.97 78.985">
  <g id="Group_540" data-name="Group 540" transform="translate(-561 -701)">
    <path id="add-product" d="M-1.14,16.581A2.317,2.317,0,0,1-1.383,13.1L12.991-1.216a2.309,2.309,0,0,1,1.753-.8H55.316a2.31,2.31,0,0,1,1.748.8L71.526,13.1c.107.124.2.23.217.253a2.306,2.306,0,0,1-.461,3.227L57.63,26.8v2.93A23.836,23.836,0,1,1,29.246,53.209h-14.5a2.314,2.314,0,0,1-2.314-2.314V26.742ZM57.63,5.834V21.043L66.376,14.5ZM53,29.3V2.609H46.659l-10.143,8.53a2.3,2.3,0,0,1-2.989.02L23.36,2.609h-6.3V48.581H29.681A23.842,23.842,0,0,1,53,29.3ZM39.5,66.712a19.206,19.206,0,1,0,0-27.161A19.206,19.206,0,0,0,39.5,66.712Zm0-64.1H30.516l4.493,3.778ZM12.43,5.856,3.759,14.49l8.67,6.492Zm0,0" transform="translate(563.056 703.019)" fill="#00a2ed" fill-rule="evenodd"/>
    <path id="Union_1" data-name="Union 1" d="M-416.583-88.083v-8.334h-8.334A2.083,2.083,0,0,1-427-98.5a2.083,2.083,0,0,1,2.083-2.083h8.334v-8.333A2.083,2.083,0,0,1-414.5-111a2.083,2.083,0,0,1,2.083,2.083v8.333h8.334A2.083,2.083,0,0,1-402-98.5a2.083,2.083,0,0,1-2.083,2.083h-8.334v8.334A2.083,2.083,0,0,1-414.5-86,2.083,2.083,0,0,1-416.583-88.083Z" transform="translate(1030.5 855)" fill="#00a2ed"/>
  </g>
</svg>
