<svg id="instagram-sketched" xmlns="http://www.w3.org/2000/svg" width="16.733" height="16.737" viewBox="0 0 16.733 16.737">
  <path id="Path_229" data-name="Path 229" d="M17.139,4.921a6.116,6.116,0,0,0-.389-2.03A4.287,4.287,0,0,0,14.3.441a6.131,6.131,0,0,0-2.03-.389C11.375.01,11.091,0,8.819,0S6.262.01,5.369.049a6.117,6.117,0,0,0-2.03.389,4.084,4.084,0,0,0-1.484.968A4.121,4.121,0,0,0,.89,2.887,6.132,6.132,0,0,0,.5,4.917C.458,5.813.449,6.1.449,8.37s.01,2.557.049,3.449a6.115,6.115,0,0,0,.389,2.03A4.287,4.287,0,0,0,3.336,16.3a6.132,6.132,0,0,0,2.03.389c.892.039,1.177.049,3.449.049s2.557-.01,3.449-.049a6.114,6.114,0,0,0,2.03-.389,4.281,4.281,0,0,0,2.449-2.449,6.136,6.136,0,0,0,.389-2.03c.039-.893.049-1.177.049-3.449s0-2.557-.043-3.449Zm-1.507,6.833a4.587,4.587,0,0,1-.288,1.553A2.776,2.776,0,0,1,13.756,14.9a4.6,4.6,0,0,1-1.553.288c-.883.039-1.148.049-3.381.049s-2.5-.01-3.381-.049A4.585,4.585,0,0,1,3.888,14.9a2.575,2.575,0,0,1-.961-.625A2.6,2.6,0,0,1,2.3,13.31a4.6,4.6,0,0,1-.288-1.553c-.039-.883-.049-1.148-.049-3.381s.01-2.5.049-3.381A4.585,4.585,0,0,1,2.3,3.443a2.544,2.544,0,0,1,.628-.961,2.6,2.6,0,0,1,.961-.624,4.607,4.607,0,0,1,1.553-.288c.883-.039,1.148-.049,3.381-.049s2.5.01,3.381.049a4.587,4.587,0,0,1,1.553.288,2.574,2.574,0,0,1,.961.624,2.6,2.6,0,0,1,.625.961A4.606,4.606,0,0,1,15.632,5c.039.883.049,1.148.049,3.381s-.01,2.495-.049,3.377Zm0,0" transform="translate(-0.449 0)" fill="#1f1f25"/>
  <path id="Path_230" data-name="Path 230" d="M129.248,124.5a4.3,4.3,0,1,0,4.3,4.3A4.3,4.3,0,0,0,129.248,124.5Zm0,7.088a2.789,2.789,0,1,1,2.789-2.789A2.789,2.789,0,0,1,129.248,131.588Zm0,0" transform="translate(-120.878 -120.429)" fill="#1f1f25"/>
  <path id="Path_231" data-name="Path 231" d="M364.457,89.606a1,1,0,1,1-1-1A1,1,0,0,1,364.457,89.606Zm0,0" transform="translate(-350.614 -85.705)" fill="#1f1f25"/>
</svg>
