<svg id="linkedin" xmlns="http://www.w3.org/2000/svg" width="15.016" height="15.016" viewBox="0 0 15.016 15.016">
  <path id="Path_233" data-name="Path 233" d="M18.19,17.851h0V12.343c0-2.694-.58-4.769-3.73-4.769a3.27,3.27,0,0,0-2.945,1.619h-.044V7.826H8.489V17.851H11.6V12.887c0-1.307.248-2.571,1.866-2.571,1.595,0,1.619,1.492,1.619,2.655v4.881Z" transform="translate(-3.178 -2.835)" fill="#1f1f25"/>
  <path id="Path_234" data-name="Path 234" d="M.4,7.977H3.509V18H.4Z" transform="translate(-0.148 -2.986)" fill="#1f1f25"/>
  <path id="Path_235" data-name="Path 235" d="M1.8,0a1.812,1.812,0,1,0,1.8,1.8A1.8,1.8,0,0,0,1.8,0Z" fill="#1f1f25"/>
</svg>
