<svg xmlns="http://www.w3.org/2000/svg" width="13.598" height="16.737" viewBox="0 0 13.598 16.737">
  <path id="pinterest" d="M9.277,0C4.689,0,2.25,2.94,2.25,6.145a4.49,4.49,0,0,0,2.16,3.928c.379.171.329-.038.656-1.286A.3.3,0,0,0,4.995,8.5c-1.9-2.2-.371-6.719,4.011-6.719,6.341,0,5.156,8.774,1.1,8.774A1.5,1.5,0,0,1,8.532,8.717a19.871,19.871,0,0,0,.883-3.379c0-2.2-3.271-1.87-3.271,1.039a3.519,3.519,0,0,0,.318,1.506S5.41,12.134,5.215,12.929a11.281,11.281,0,0,0,.077,3.709.11.11,0,0,0,.2.051,13.151,13.151,0,0,0,1.732-3.262c.13-.478.662-2.416.662-2.416a2.891,2.891,0,0,0,2.439,1.163c3.205,0,5.522-2.817,5.522-6.313C15.837,2.508,12.969,0,9.277,0Z" transform="translate(-2.25)" fill="#1f1f25"/>
</svg>
