<svg xmlns="http://www.w3.org/2000/svg" width="57.312" height="62.252" viewBox="0 0 57.312 62.252">
  <g id="box_1_" data-name="box (1)" transform="translate(-18.8)">
    <path id="Path_213" data-name="Path 213" d="M76.086,14.676a1.632,1.632,0,0,0-.158-.7,1.522,1.522,0,0,0-1.064-.841L48.1.158a1.588,1.588,0,0,0-1.38,0l-27.027,13.1a1.582,1.582,0,0,0-.893,1.366V47.563a1.566,1.566,0,0,0,.893,1.419l27.027,13.1c.013,0,.013,0,.026.013a.467.467,0,0,1,.118.053c.013,0,.026.013.053.013l.118.039c.013,0,.026.013.039.013.039.013.092.013.131.026h.039c.053,0,.118.013.171.013a.749.749,0,0,0,.171-.013h.039a.467.467,0,0,0,.131-.026c.013,0,.026-.013.039-.013l.118-.039c.013,0,.026-.013.053-.013a.467.467,0,0,0,.118-.053c.013,0,.013,0,.026-.013L75.219,48.942a1.589,1.589,0,0,0,.893-1.419V14.716C76.086,14.7,76.086,14.689,76.086,14.676ZM47.4,3.324l23.44,11.365-8.632,4.191L38.771,7.515Zm0,22.73L23.964,14.689,35.158,9.263,58.6,20.628Zm-25.45-8.829L45.827,28.8V58.14L21.953,46.564ZM48.98,58.14V28.8l11.207-5.44v7.673a1.577,1.577,0,1,0,3.153,0v-9.21l9.591-4.651V46.512Z" transform="translate(0 0)" fill="#0da6e3"/>
  </g>
</svg>
