<svg id="register" xmlns="http://www.w3.org/2000/svg" width="81.225" height="81.229" viewBox="0 0 81.225 81.229">
  <path id="Path_193" data-name="Path 193" d="M13.088,54.055a1.708,1.708,0,0,1-1.2-.494,1.691,1.691,0,0,1-.464-1.526L13.819,40.07a1.659,1.659,0,0,1,.464-.866L40.608,12.878a5.086,5.086,0,0,1,7.179,0l4.786,4.786a5.08,5.08,0,0,1,0,7.179L26.247,51.168a1.683,1.683,0,0,1-.866.464L13.416,54.024A1.8,1.8,0,0,1,13.088,54.055Zm3.953-12.824L15.247,50.2l8.972-1.794L50.183,22.447a1.693,1.693,0,0,0,0-2.393L45.4,15.268a1.693,1.693,0,0,0-2.393,0Zm8.011,8.739h.034Z" transform="translate(27.168 27.174)" fill="#f96c63"/>
  <path id="Path_194" data-name="Path 194" d="M32.153,63.922H8.461A8.469,8.469,0,0,1,0,55.46v-44A8.469,8.469,0,0,1,8.461,3H15.23a1.692,1.692,0,0,1,0,3.385H8.461a5.083,5.083,0,0,0-5.077,5.077v44a5.083,5.083,0,0,0,5.077,5.077H32.153a1.692,1.692,0,1,1,0,3.385Z" transform="translate(0 7.154)" fill="#f96c63"/>
  <path id="Path_195" data-name="Path 195" d="M27.23,33.461a1.693,1.693,0,0,1-1.692-1.692V11.461a5.083,5.083,0,0,0-5.077-5.077H13.692a1.692,1.692,0,1,1,0-3.385h6.769a8.469,8.469,0,0,1,8.461,8.461V31.769A1.693,1.693,0,0,1,27.23,33.461Z" transform="translate(28.614 7.154)" fill="#f96c63"/>
  <path id="Path_196" data-name="Path 196" d="M29.384,20.307H9.077A5.083,5.083,0,0,1,4,15.23V8.461A1.693,1.693,0,0,1,5.692,6.769h5.246a8.463,8.463,0,0,1,16.584,0h5.246a1.693,1.693,0,0,1,1.692,1.692V15.23A5.083,5.083,0,0,1,29.384,20.307Zm-22-10.154V15.23a1.7,1.7,0,0,0,1.692,1.692H29.384a1.7,1.7,0,0,0,1.692-1.692V10.154H26a1.693,1.693,0,0,1-1.692-1.692,5.077,5.077,0,0,0-10.154,0,1.693,1.693,0,0,1-1.692,1.692Z" transform="translate(9.538)" fill="#f96c63"/>
  <path id="Path_197" data-name="Path 197" d="M38.538,11.385H4.692A1.692,1.692,0,1,1,4.692,8H38.538a1.692,1.692,0,1,1,0,3.385Z" transform="translate(7.154 19.076)" fill="#f96c63"/>
  <path id="Path_198" data-name="Path 198" d="M38.538,14.385H4.692a1.692,1.692,0,1,1,0-3.385H38.538a1.692,1.692,0,1,1,0,3.385Z" transform="translate(7.154 26.23)" fill="#f96c63"/>
  <path id="Path_199" data-name="Path 199" d="M38.538,17.385H4.692a1.692,1.692,0,1,1,0-3.385H38.538a1.692,1.692,0,1,1,0,3.385Z" transform="translate(7.154 33.384)" fill="#f96c63"/>
</svg>
