<svg xmlns="http://www.w3.org/2000/svg" width="13.125" height="16" viewBox="0 0 13.125 16">
  <g id="report" transform="translate(-46)">
    <g id="Group_507" data-name="Group 507" transform="translate(46)">
      <path id="Path_227" data-name="Path 227" d="M59.091,9.388l-1.18-2.951,1.18-2.951a.469.469,0,0,0-.435-.643H53.188V1.75a.469.469,0,0,0-.469-.469H46.938V.469a.469.469,0,0,0-.937,0V15.531a.469.469,0,0,0,.938,0V8.469h3.75V9.563a.47.47,0,0,0,.469.469h7.5a.469.469,0,0,0,.435-.643ZM52.25,7.531H46.938V2.219H52.25Zm.038,1.562.762-.762A.474.474,0,0,0,53.188,8V3.781h4.776l-.993,2.482a.469.469,0,0,0,0,.348l.993,2.482Z" transform="translate(-46)" fill="#1f1f25"/>
    </g>
  </g>
</svg>
