<svg xmlns="http://www.w3.org/2000/svg" width="53.236" height="62.587" viewBox="0 0 53.236 62.587">
  <g id="user" transform="translate(-36.073)">
    <g id="Group_480" data-name="Group 480" transform="translate(36.073)">
      <path id="Path_207" data-name="Path 207" d="M150.382,33.723h.415a11.96,11.96,0,0,0,9.137-3.953c4.99-5.625,4.16-15.268,4.07-16.188-.324-6.908-3.59-10.213-6.286-11.755A14.41,14.41,0,0,0,150.744,0h-.22a14.432,14.432,0,0,0-6.973,1.776c-2.722,1.542-6.04,4.847-6.364,11.807-.091.92-.92,10.563,4.07,16.188A11.912,11.912,0,0,0,150.382,33.723Zm-9.733-19.817c0-.039.013-.078.013-.1.428-9.293,7.025-10.291,9.85-10.291h.156c3.5.078,9.448,1.5,9.85,10.291a.253.253,0,0,0,.013.1c.013.091.92,8.9-3.2,13.544a8.495,8.495,0,0,1-6.675,2.774h-.13a8.467,8.467,0,0,1-6.662-2.774C139.754,22.837,140.635,13.984,140.648,13.907Z" transform="translate(-123.99)" fill="#0da6e3"/>
      <path id="Path_208" data-name="Path 208" d="M89.305,275.361v-.039c0-.1-.013-.207-.013-.324-.078-2.566-.246-8.567-5.871-10.485-.039-.013-.091-.026-.13-.039a37.4,37.4,0,0,1-10.757-4.9,1.749,1.749,0,0,0-2.009,2.864,40.367,40.367,0,0,0,11.833,5.4c3.02,1.076,3.357,4.3,3.448,7.258a2.6,2.6,0,0,0,.013.324,23.528,23.528,0,0,1-.272,4c-2.1,1.192-10.33,5.314-22.85,5.314-12.468,0-20.75-4.134-22.862-5.327a22.272,22.272,0,0,1-.272-4c0-.1.013-.207.013-.324.091-2.955.428-6.182,3.448-7.258a40.742,40.742,0,0,0,11.833-5.4,1.749,1.749,0,0,0-2.009-2.864,36.987,36.987,0,0,1-10.757,4.9c-.052.013-.091.026-.13.039-5.625,1.931-5.793,7.932-5.871,10.485a2.6,2.6,0,0,1-.013.324v.039a19.875,19.875,0,0,0,.661,5.871,1.663,1.663,0,0,0,.674.816c.389.259,9.707,6.2,25.3,6.2s24.91-5.949,25.3-6.2a1.734,1.734,0,0,0,.674-.816A20.852,20.852,0,0,0,89.305,275.361Z" transform="translate(-36.073 -225.645)" fill="#0da6e3"/>
    </g>
  </g>
</svg>
