<svg xmlns="http://www.w3.org/2000/svg" width="69.963" height="69.912" viewBox="0 0 69.963 69.912">
  <g id="social" transform="translate(0 -0.186)">
    <path id="Path_214" data-name="Path 214" d="M61.976,123.363a8,8,0,1,0-11.442,0,13.65,13.65,0,0,0-1.6.87,17.574,17.574,0,0,0-7.176-5.246,9.9,9.9,0,0,0,2.874-11.179L58.263,95a7.716,7.716,0,1,0-2.869-2.911L42.353,104.341a9.908,9.908,0,0,0-14.721.85L14.413,92.132a7.72,7.72,0,1,0-2.885,2.893l14.2,14.029a9.9,9.9,0,0,0,3.265,9.933,17.577,17.577,0,0,0-7.388,5.51,13.6,13.6,0,0,0-2.008-1.14,8,8,0,1,0-11.447.005A13.727,13.727,0,0,0,.163,135.82v3.725h69.8V135.82a13.727,13.727,0,0,0-7.987-12.456ZM7.709,91.956a3.623,3.623,0,1,1,3.623-3.623A3.627,3.627,0,0,1,7.709,91.956Zm48.545,21.919a3.91,3.91,0,1,1-3.91,3.91A3.915,3.915,0,0,1,56.254,113.875ZM62.121,84.71A3.623,3.623,0,1,1,58.5,88.333,3.627,3.627,0,0,1,62.121,84.71ZM35.374,105.552a5.84,5.84,0,1,1-5.84,5.84A5.847,5.847,0,0,1,35.374,105.552Zm-21.5,8.323a3.91,3.91,0,1,1-3.91,3.91A3.914,3.914,0,0,1,13.871,113.875ZM4.256,135.459a9.623,9.623,0,0,1,15.216-7.464,17.389,17.389,0,0,0-1.589,7.28v.184H4.256Zm44.524,0H21.969v-.184a13.4,13.4,0,0,1,26.81,0v.184Zm4.086,0v-.184a17.386,17.386,0,0,0-1.737-7.6,9.62,9.62,0,0,1,14.742,7.781Z" transform="translate(0 -69.446)" fill="#0da6e3"/>
    <g id="Group_484" data-name="Group 484" transform="translate(21.203 0.186)">
      <g id="Group_483" data-name="Group 483">
        <g id="Group_481" data-name="Group 481" transform="translate(6.625 8.891)">
          <path id="Path_215" data-name="Path 215" d="M206.7,71.164l-3.054-2.714a9.484,9.484,0,0,1,14.2,0l-3.055,2.714a5.4,5.4,0,0,0-8.089,0Z" transform="translate(-203.647 -65.254)" fill="#0da6e3"/>
        </g>
        <g id="Group_482" data-name="Group 482">
          <path id="Path_216" data-name="Path 216" d="M179.56,9.077a14.248,14.248,0,0,0-21.338,0l-3.054-2.714a18.334,18.334,0,0,1,27.447,0Z" transform="translate(-155.167 -0.186)" fill="#0da6e3"/>
        </g>
      </g>
    </g>
  </g>
</svg>
