<svg xmlns="http://www.w3.org/2000/svg" width="80.496" height="68.841" viewBox="0 0 80.496 68.841">
  <g id="start-selling" transform="translate(0 -37.067)">
    <g id="Group_463" data-name="Group 463" transform="translate(0 37.067)">
      <path id="Path_200" data-name="Path 200" d="M22.486,85.9H68.7a2.385,2.385,0,0,0,2.286-1.7L80.4,52.612a2.385,2.385,0,0,0-2.285-3.065H17.418L14.209,38.771a2.385,2.385,0,0,0-2.286-1.7H2.385a2.385,2.385,0,1,0,0,4.77h7.76l3.194,10.724c.01.035.02.07.031.105l8.484,28.488a9.314,9.314,0,0,0,.631,18.606h2.368a8.53,8.53,0,0,0,16.381,0H53.888a8.53,8.53,0,0,0,16.381,0h3.073a2.385,2.385,0,1,0,0-4.77H70.269a8.53,8.53,0,0,0-16.381,0H41.234a8.53,8.53,0,0,0-16.381,0H22.486a4.546,4.546,0,0,1,0-9.091ZM57.471,54.316H74.913L71.63,65.338H57.471Zm0,15.792H70.21L66.927,81.13H57.471ZM39.824,54.316H52.7V65.338H39.824Zm0,15.792H52.7V81.13H39.824ZM35.055,81.13h-8.23L23.542,70.108H35.055ZM18.839,54.316H35.055V65.338H22.122Zm43.24,39.3a3.763,3.763,0,1,1-3.763,3.763A3.767,3.767,0,0,1,62.079,93.613Zm-29.035,0a3.763,3.763,0,1,1-3.763,3.763A3.767,3.767,0,0,1,33.044,93.613Z" transform="translate(0 -37.067)" fill="#ffd519"/>
    </g>
  </g>
</svg>
