<svg id="twitter" xmlns="http://www.w3.org/2000/svg" width="20.599" height="16.737" viewBox="0 0 20.599 16.737">
  <g id="Group_515" data-name="Group 515" transform="translate(0 0)">
    <path id="Path_232" data-name="Path 232" d="M20.6,49.981a8.8,8.8,0,0,1-2.433.667,4.2,4.2,0,0,0,1.858-2.334,8.439,8.439,0,0,1-2.678,1.022,4.223,4.223,0,0,0-7.3,2.888,4.348,4.348,0,0,0,.1.963,11.953,11.953,0,0,1-8.7-4.417,4.224,4.224,0,0,0,1.3,5.644,4.17,4.17,0,0,1-1.908-.52v.046A4.242,4.242,0,0,0,4.207,58.09a4.215,4.215,0,0,1-1.107.139,3.734,3.734,0,0,1-.8-.072A4.263,4.263,0,0,0,6.247,61.1a8.485,8.485,0,0,1-5.236,1.8A7.911,7.911,0,0,1,0,62.842a11.889,11.889,0,0,0,6.478,1.9A11.937,11.937,0,0,0,18.5,52.72c0-.187-.006-.367-.015-.546A8.425,8.425,0,0,0,20.6,49.981Z" transform="translate(0 -48)" fill="#1f1f25"/>
  </g>
</svg>
