<svg width="18" height="18" viewBox="0 0 18 18" fill="none" xmlns="http://www.w3.org/2000/svg">
<path d="M11.9762 12.7675L13.5162 11.2275C13.7236 11.0227 13.9861 10.8825 14.2716 10.8239C14.5572 10.7653 14.8536 10.7909 15.125 10.8975L17.0018 11.6469C17.276 11.7582 17.5111 11.9482 17.6775 12.1928C17.8439 12.4375 17.9341 12.726 17.9368 13.0219V16.4594C17.9352 16.6607 17.8929 16.8596 17.8124 17.0441C17.732 17.2286 17.615 17.3949 17.4685 17.533C17.3221 17.6711 17.1492 17.7781 16.9603 17.8476C16.7714 17.9172 16.5704 17.9477 16.3693 17.9375C3.21745 17.1194 0.563704 5.9819 0.0618291 1.7194C0.0385317 1.51008 0.0598179 1.2982 0.124287 1.0977C0.188757 0.897202 0.294948 0.712623 0.435875 0.556109C0.576803 0.399595 0.749272 0.274694 0.941938 0.189622C1.1346 0.10455 1.3431 0.0612356 1.5537 0.0625281H4.87433C5.17065 0.0634052 5.45993 0.152912 5.70496 0.319536C5.95 0.48616 6.13958 0.722281 6.24933 0.997528L6.9987 2.8744C7.10888 3.14464 7.13699 3.44134 7.07952 3.72746C7.02205 4.01358 6.88156 4.27642 6.67558 4.48315L5.13558 6.02315C5.13558 6.02315 6.02245 12.025 11.9762 12.7675Z" fill="#C4C4C4"/>
</svg>
