<svg width="41" height="32" viewBox="0 0 41 32" fill="none" xmlns="http://www.w3.org/2000/svg">
<g filter="url(#filter0_d)">
<path d="M33.0551 0.866699H7.53311C5.90921 0.866699 4.58824 2.12269 4.58824 3.66671V20.4667C4.58824 22.0107 5.90921 23.2667 7.53311 23.2667H33.0551C34.679 23.2667 36 22.0107 36 20.4667V3.66671C36 2.12269 34.679 0.866699 33.0551 0.866699ZM33.0551 2.73336C33.1885 2.73336 33.3154 2.75966 33.4314 2.80561L20.2941 13.6317L7.15681 2.80561C7.2728 2.75973 7.39968 2.73336 7.53305 2.73336H33.0551ZM33.0551 21.4H7.53311C6.99151 21.4 6.55147 20.9816 6.55147 20.4666V4.77776L19.6509 15.5721C19.8359 15.7243 20.065 15.8 20.2941 15.8C20.5232 15.8 20.7523 15.7244 20.9374 15.5721L34.0368 4.77776V20.4667C34.0367 20.9816 33.5967 21.4 33.0551 21.4Z" fill="#AEA8A8"/>
<path d="M21.001 15.6493L33.9368 4.98974V20.4667C33.9367 20.9217 33.5463 21.3 33.0551 21.3H7.53311C7.04192 21.3 6.65147 20.9217 6.65147 20.4666V4.98974L19.5873 15.6493L19.5874 15.6494C19.7913 15.8171 20.0432 15.9 20.2941 15.9C20.5451 15.9 20.7969 15.8172 21.0009 15.6494L21.001 15.6493ZM33.0551 0.766699H7.53311C5.8588 0.766699 4.48824 2.06277 4.48824 3.66671V20.4667C4.48824 22.0706 5.8588 23.3667 7.53311 23.3667H33.0551C34.7295 23.3667 36.1 22.0706 36.1 20.4667V3.66671C36.1 2.06277 34.7295 0.766699 33.0551 0.766699ZM33.0551 2.83336C33.1121 2.83336 33.1678 2.83868 33.2218 2.84872L20.2941 13.5021L7.36639 2.84874C7.4204 2.8387 7.47609 2.83336 7.53305 2.83336H33.0551Z" stroke="#AEA8A8" stroke-width="0.2"/>
</g>
<defs>
<filter id="filter0_d" x="0.388245" y="0.666504" width="39.8118" height="30.8" filterUnits="userSpaceOnUse" color-interpolation-filters="sRGB">
<feFlood flood-opacity="0" result="BackgroundImageFix"/>
<feColorMatrix in="SourceAlpha" type="matrix" values="0 0 0 0 0 0 0 0 0 0 0 0 0 0 0 0 0 0 127 0"/>
<feOffset dy="4"/>
<feGaussianBlur stdDeviation="2"/>
<feColorMatrix type="matrix" values="0 0 0 0 0 0 0 0 0 0 0 0 0 0 0 0 0 0 0.25 0"/>
<feBlend mode="normal" in2="BackgroundImageFix" result="effect1_dropShadow"/>
<feBlend mode="normal" in="SourceGraphic" in2="effect1_dropShadow" result="shape"/>
</filter>
</defs>
</svg>
